<?xml version="1.0" encoding="UTF-8" standalone="no"?>
<!-- Created with Inkscape (http://www.inkscape.org/) -->

<svg
        xmlns:dc="http://purl.org/dc/elements/1.1/"
        xmlns:cc="http://creativecommons.org/ns#"
        xmlns:rdf="http://www.w3.org/1999/02/22-rdf-syntax-ns#"
        xmlns="http://www.w3.org/2000/svg"
        xmlns:xlink="http://www.w3.org/1999/xlink"
        version="1.2"
        width="450"
        height="250"
        id="svg2">
    <defs
            id="defs4">
        <linearGradient
                id="linearGradient5266">
            <stop
                    id="stop5268"
                    style="stop-color:#000000;stop-opacity:1"
                    offset="0"/>
            <stop
                    id="stop5270"
                    style="stop-color:#000000;stop-opacity:0"
                    offset="1"/>
        </linearGradient>
        <marker
                refX="0"
                refY="0"
                orient="auto"
                id="RazorWire"
                style="overflow:visible">
            <path
                    d="m 0.02272727,-0.74009011 0,1.4375 -7.78124997,2.31250001 18.4374997,0 -7.1874997,-2.31250001 0,-1.4375 7.2499997,-2.15624999 -18.4687497,0 7.74999997,2.15624999 z"
                    transform="scale(0.8,0.8)"
                    id="path6634"
                    style="fill:#808080;fill-opacity:1;fill-rule:evenodd;stroke:#000000;stroke-width:0.1pt"/>
        </marker>
        <marker
                refX="0"
                refY="0"
                orient="auto"
                id="DotS"
                style="overflow:visible">
            <path
                    d="m -2.5,-1 c 0,2.76 -2.24,5 -5,5 -2.76,0 -5,-2.24 -5,-5 0,-2.76 2.24,-5 5,-5 2.76,0 5,2.24 5,5 z"
                    transform="matrix(0.2,0,0,0.2,1.48,0.2)"
                    id="path6469"
                    style="fill-rule:evenodd;stroke:#000000;stroke-width:1pt"/>
        </marker>
        <marker
                refX="0"
                refY="0"
                orient="auto"
                id="StopS"
                style="overflow:visible">
            <path
                    d="M 0,5.65 0,-5.65"
                    transform="scale(0.2,0.2)"
                    id="path6577"
                    style="fill:none;stroke:#000000;stroke-width:1pt"/>
        </marker>
        <marker
                refX="0"
                refY="0"
                orient="auto"
                id="StopM"
                style="overflow:visible">
            <path
                    d="M 0,5.65 0,-5.65"
                    transform="scale(0.4,0.4)"
                    id="path6574"
                    style="fill:none;stroke:#000000;stroke-width:1pt"/>
        </marker>
        <marker
                refX="0"
                refY="0"
                orient="auto"
                id="DotL"
                style="overflow:visible">
            <path
                    d="m -2.5,-1 c 0,2.76 -2.24,5 -5,5 -2.76,0 -5,-2.24 -5,-5 0,-2.76 2.24,-5 5,-5 2.76,0 5,2.24 5,5 z"
                    transform="matrix(0.8,0,0,0.8,5.92,0.8)"
                    id="path6463"
                    style="fill-rule:evenodd;stroke:#000000;stroke-width:1pt"/>
        </marker>
        <marker
                refX="0"
                refY="0"
                orient="auto"
                id="StopL"
                style="overflow:visible">
            <path
                    d="M 0,5.65 0,-5.65"
                    transform="scale(0.8,0.8)"
                    id="path6571"
                    style="fill:none;stroke:#000000;stroke-width:1pt"/>
        </marker>
        <marker
                refX="0"
                refY="0"
                orient="auto"
                id="Torso"
                style="overflow:visible">
            <g
                    transform="scale(0.7,0.7)"
                    id="g6614">
                <path
                        d="m -4.7792281,-3.239542 c 2.350374,0.3659393 5.30026732,1.9375477 5.03715532,3.62748546 C -0.00518779,2.0778819 -2.2126741,2.6176539 -4.5630471,2.2517169 -6.9134221,1.8857769 -8.521035,0.75201414 -8.257922,-0.93792336 -7.994809,-2.6278615 -7.1296041,-3.6054813 -4.7792281,-3.239542 z"
                        id="path6616"
                        style="fill:none;stroke:#000000;stroke-width:1.25"/>
                <path
                        d="M 4.4598789,0.08866574 C -2.5564571,-4.378332 5.2248769,-3.9061806 -0.84829578,-8.7197331"
                        id="path6618"
                        style="fill:none;stroke:#000000;stroke-width:1pt"/>
                <path
                        d="M 4.9298719,0.05752074 C -1.3872731,1.7494689 1.8027579,5.4782079 -4.9448731,7.5462725"
                        id="path6620"
                        style="fill:none;stroke:#000000;stroke-width:1pt"/>
                <rect
                        width="2.6366582"
                        height="2.7608147"
                        x="-10.391706"
                        y="-1.7408575"
                        transform="matrix(0.527536,-0.849533,0.887668,0.460484,0,0)"
                        id="rect6622"
                        style="fill-rule:evenodd;stroke-width:1pt"/>
                <rect
                        width="2.7327356"
                        height="2.8614161"
                        x="4.9587269"
                        y="-7.9629307"
                        transform="matrix(0.671205,-0.741272,0.790802,0.612072,0,0)"
                        id="rect6624"
                        style="fill-rule:evenodd;stroke-width:1pt"/>
                <path
                        d="m 16.779951,-28.685045 a 0.60731727,0.60731727 0 1 0 -1.214634,0 0.60731727,0.60731727 0 1 0 1.214634,0 z"
                        transform="matrix(0,-1.109517,1.109517,0,25.96648,19.71619)"
                        id="path6626"
                        style="fill:#ff0000;fill-opacity:0.75;fill-rule:evenodd;stroke:#000000;stroke-width:1pt"/>
                <path
                        d="m 16.779951,-28.685045 a 0.60731727,0.60731727 0 1 0 -1.214634,0 0.60731727,0.60731727 0 1 0 1.214634,0 z"
                        transform="matrix(0,-1.109517,1.109517,0,26.8245,16.99126)"
                        id="path6628"
                        style="fill:#ff0000;fill-opacity:0.75;fill-rule:evenodd;stroke:#000000;stroke-width:1pt"/>
            </g>
        </marker>
        <marker
                refX="0"
                refY="0"
                orient="auto"
                id="DistanceStart"
                style="overflow:visible">
            <g
                    id="g2300">
                <path
                        d="M 0,0 2,0"
                        id="path2306"
                        style="fill:none;stroke:#ffffff;stroke-width:1.14999998;stroke-linecap:square"/>
                <path
                        d="M 0,0 13,4 9,0 13,-4 0,0 z"
                        id="path2302"
                        style="fill:#000000;fill-rule:evenodd;stroke:none"/>
                <path
                        d="M 0,-4 0,40"
                        id="path2304"
                        style="fill:none;stroke:#000000;stroke-width:1;stroke-linecap:square"/>
            </g>
        </marker>
        <marker
                refX="0"
                refY="0"
                orient="auto"
                id="Arrow1Send"
                style="overflow:visible">
            <path
                    d="M 0,0 5,-5 -12.5,0 5,5 0,0 z"
                    transform="matrix(-0.2,0,0,-0.2,-1.2,0)"
                    id="path6417"
                    style="fill-rule:evenodd;stroke:#000000;stroke-width:1pt"/>
        </marker>
        <marker
                refX="0"
                refY="0"
                orient="auto"
                id="DotM"
                style="overflow:visible">
            <path
                    d="m -2.5,-1 c 0,2.76 -2.24,5 -5,5 -2.76,0 -5,-2.24 -5,-5 0,-2.76 2.24,-5 5,-5 2.76,0 5,2.24 5,5 z"
                    transform="matrix(0.4,0,0,0.4,2.96,0.4)"
                    id="path6466"
                    style="fill-rule:evenodd;stroke:#000000;stroke-width:1pt"/>
        </marker>
        <marker
                refX="0"
                refY="0"
                orient="auto"
                id="Tail"
                style="overflow:visible">
            <g
                    transform="scale(-1.2,-1.2)"
                    id="g6438">
                <path
                        d="M -3.8048674,-3.9585227 0.54352094,0"
                        id="path6440"
                        style="fill:none;stroke:#000000;stroke-width:0.80000001;stroke-linecap:round"/>
                <path
                        d="M -1.2866832,-3.9585227 3.0617053,0"
                        id="path6442"
                        style="fill:none;stroke:#000000;stroke-width:0.80000001;stroke-linecap:round"/>
                <path
                        d="M 1.3053582,-3.9585227 5.6537466,0"
                        id="path6444"
                        style="fill:none;stroke:#000000;stroke-width:0.80000001;stroke-linecap:round"/>
                <path
                        d="M -3.8048674,4.1775838 0.54352094,0.21974226"
                        id="path6446"
                        style="fill:none;stroke:#000000;stroke-width:0.80000001;stroke-linecap:round"/>
                <path
                        d="M -1.2866832,4.1775838 3.0617053,0.21974226"
                        id="path6448"
                        style="fill:none;stroke:#000000;stroke-width:0.80000001;stroke-linecap:round"/>
                <path
                        d="M 1.3053582,4.1775838 5.6537466,0.21974226"
                        id="path6450"
                        style="fill:none;stroke:#000000;stroke-width:0.80000001;stroke-linecap:round"/>
            </g>
        </marker>
        <marker
                refX="0"
                refY="0"
                orient="auto"
                id="Arrow1Mstart"
                style="overflow:visible">
            <path
                    d="M 0,0 5,-5 -12.5,0 5,5 0,0 z"
                    transform="matrix(0.4,0,0,0.4,4,0)"
                    id="path6408"
                    style="fill-rule:evenodd;stroke:#000000;stroke-width:1pt"/>
        </marker>
        <marker
                refX="0"
                refY="0"
                orient="auto"
                id="Arrow1Lstart"
                style="overflow:visible">
            <path
                    d="M 0,0 5,-5 -12.5,0 5,5 0,0 z"
                    transform="matrix(0.8,0,0,0.8,10,0)"
                    id="path6402"
                    style="fill-rule:evenodd;stroke:#000000;stroke-width:1pt"/>
        </marker>
        <linearGradient
                id="linearGradient6344">
            <stop
                    id="stop6346"
                    style="stop-color:#000000;stop-opacity:1"
                    offset="0"/>
            <stop
                    id="stop6348"
                    style="stop-color:#000000;stop-opacity:0"
                    offset="1"/>
        </linearGradient>
        <linearGradient
                x1="635.09528"
                y1="-108.5575"
                x2="943.57849"
                y2="-108.5575"
                id="linearGradient5274"
                xlink:href="#linearGradient5266"
                gradientUnits="userSpaceOnUse"/>
    </defs>
    <metadata
            id="metadata7">
        <rdf:RDF>
            <cc:Work
                    rdf:about="">
                <dc:format>image/svg+xml</dc:format>
                <dc:type
                        rdf:resource="http://purl.org/dc/dcmitype/StillImage"/>
                <dc:title></dc:title>
            </cc:Work>
        </rdf:RDF>
    </metadata>
    <g
            transform="translate(-17.34375,-782.3839)"
            id="layer1">
        <path
                d="m 122.40854,859.74042 c 0,0 4.71641,-11.04318 15.07212,-15.64271 6.43304,-2.85727 20.37683,-5.8312 28.92832,-7.31081 2.06621,1.28043 17.52941,17.27716 27.7965,15.60772 0,0 -11.97958,-6.78835 -12.63014,-11.32582 7.19898,2.60927 18.95966,9.66761 31.7604,7.80162 0,0 -25.90168,-11.49204 -27.56926,-14.39981 6.5661,2.18083 21.82973,6.93502 31.75062,3.20781 0,0 -31.86839,-8.47635 -33.16949,-12.0415 6.92419,2.17227 27.01304,8.56675 36.6186,3.79715 0,0 -38.16435,-9.10137 -40.44127,-12.66653 0,0 19.65435,4.55854 22.55634,1.30303 -12.74074,-5.10013 -25.85646,-9.74765 -33.78424,-9.9803 -5.87419,0.93725 -17.24619,8.54943 -37.13758,8.73001 -4.66031,-5.92785 -10.0007,-20.93169 -9.63592,-28.05889 m -0.0127,237.24501 c 1.62638,-28.08914 7.71134,-54.36791 13.89157,-79.86419 5.31284,5.61783 10.56816,11.8086 15.881,17.42642 -16.47374,-30.43316 -13.92084,-49.3871 -16.09807,-75.75763 -1.18255,-14.32311 -0.0685,-27.23175 13.04487,-34.26409 3.57185,-1.91546 18.51816,-4.65228 17.11558,-16.71236 m -44.06683,22.90587 c 0,0 -4.71641,-11.04318 -15.07212,-15.64271 -6.43304,-2.85727 -20.376834,-5.8312 -28.928326,-7.31081 -2.066203,1.28043 -17.529403,17.27716 -27.796489,15.60772 0,0 11.97958,-6.78835 12.630133,-11.32582 -7.198973,2.60927 -18.959662,9.66761 -31.760394,7.80162 0,0 25.901676,-11.49204 27.569263,-14.39981 -6.566103,2.18083 -21.829732,6.93502 -31.750634,3.20781 0,0 31.868396,-8.47635 33.169494,-12.0415 -6.924192,2.17227 -27.013038,8.56675 -36.618595,3.79715 0,0 38.164345,-9.10137 40.441269,-12.66653 0,0 -19.654358,4.55854 -22.556334,1.30303 12.740738,-5.10013 25.856447,-9.74765 33.78424,-9.9803 5.874185,0.93725 17.246185,8.54943 37.137573,8.73001 4.66031,-5.92785 10.0007,-20.8744 9.75092,-28.05889 m -0.12063,237.24501 c -1.62639,-28.08914 -7.71134,-54.36791 -13.89157,-79.86419 -5.31283,5.61783 -10.56816,11.8086 -15.880996,17.42642 16.473726,-30.43316 13.920846,-49.3871 16.098066,-75.75763 1.18255,-14.32311 0.0685,-27.23175 -13.044868,-34.26409 -3.57184,-1.91546 -18.518155,-4.65228 -17.115579,-16.71236"
                id="path3177-9"
                style="fill:none;stroke:#000000;stroke-width:3.5;stroke-linecap:round;stroke-linejoin:miter;stroke-miterlimit:4;stroke-opacity:1;stroke-dasharray:none;stroke-dashoffset:0;marker-start:none;marker-mid:none;display:inline"/>
    </g>
    <g
            transform="translate(-17.34375,-782.3839)"
            id="layer2">
        <g
                transform="matrix(1.0021057,0,0,1.0097477,-474.58057,1047.3281)"
                id="flowRoot4106"
                style="font-size:55.5126915px;font-style:normal;font-weight:normal;text-align:start;line-height:125%;letter-spacing:0px;word-spacing:0px;writing-mode:lr-tb;text-anchor:start;fill:#000000;fill-opacity:1;stroke:none;font-family:Sans">
            <path
                    d="m 675.33308,-127.09094 c -4e-5,3.07173 0.0555,6.05091 0.16654,8.93754 0.14799,2.88668 0.33303,6.12492 0.55512,9.71472 0.25902,3.55282 0.42556,6.0879 0.49962,7.60524 0.037,1.147268 0.38854,2.03547 1.05474,2.664611 0.66611,0.592137 1.70234,1.017734 3.10871,1.276792 1.22123,0.222052 1.83187,0.555128 1.83192,0.999228 -5e-5,0.407093 -0.53667,0.61064 -1.60987,0.61064 -1.03628,0 -2.18354,-0.05551 -3.44179,-0.166538 -1.22132,-0.07402 -2.23905,-0.111025 -3.05319,-0.111025 -0.7032,0 -1.59141,0.03701 -2.66461,0.111025 -1.03628,0.111025 -2.09102,0.166538 -3.16423,0.166538 -1.07328,0 -1.6099,-0.203547 -1.60987,-0.61064 -3e-5,-0.518117 0.61061,-0.851193 1.83192,-0.999228 1.07321,-0.148032 1.81338,-0.518117 2.22051,-1.110254 0.40706,-0.592132 0.6106,-1.554351 0.61064,-2.886659 -4e-5,-3.62682 -0.22209,-10.43637 -0.66615,-20.42867 -4e-5,-0.59211 -0.0926,-0.88818 -0.27757,-0.8882 -0.11106,2e-5 -0.3146,0.29609 -0.61063,0.8882 l -12.32382,24.98071 c -0.40712,0.888203 -0.72169,1.332304 -0.94372,1.332304 -0.18506,0 -0.44412,-0.48111 -0.77718,-1.44333 -2.07249,-6.217414 -5.38474,-14.636834 -9.93677,-25.258274 -0.37009,-0.85117 -0.61065,-0.85117 -0.72166,0 -1.18428,8.77102 -1.77642,15.59908 -1.77641,20.48418 -10e-6,0.88821 0.29606,1.776413 0.8882,2.664612 0.59213,0.888205 1.49884,1.443332 2.72013,1.665381 1.22126,0.222052 1.8319,0.555128 1.83192,0.999228 -2e-5,0.407093 -0.53664,0.61064 -1.60987,0.61064 -1.07326,0 -2.07249,-0.05551 -2.99769,-0.166538 -0.88821,-0.07402 -1.62838,-0.111025 -2.22051,-0.111025 -0.59214,0 -1.3138,0.03701 -2.16499,0.111025 -0.8512,0.111025 -1.81342,0.166538 -2.88666,0.166538 -1.07325,0 -1.60987,-0.203547 -1.60987,-0.61064 0,-0.4441 0.61064,-0.777176 1.83192,-0.999228 1.88743,-0.333075 3.03469,-1.776403 3.44179,-4.329993 1.51734,-11.36158 2.27601,-19.42941 2.27602,-24.20353 -10e-6,-0.22202 -0.0185,-0.46258 -0.0555,-0.72167 0,-0.25902 0,-0.44407 0,-0.55512 0,-0.51809 -0.27757,-1.11022 -0.83269,-1.77641 -0.22205,-0.25902 -0.48111,-0.48108 -0.77717,-0.66615 -0.25907,-0.18501 -0.59215,-0.33304 -0.99923,-0.4441 -0.37009,-0.148 -0.68466,-0.25903 -0.94372,-0.33308 -0.25906,-0.074 -0.61064,-0.148 -1.05474,-0.22205 -0.4441,-0.11099 -0.72167,-0.18501 -0.83269,-0.22205 -0.51812,-0.18501 -0.77718,-0.49958 -0.77718,-0.94372 0,-0.40705 0.4256,-0.6106 1.27679,-0.61064 0.74017,4e-5 2.35004,0.0741 4.82961,0.22206 2.47956,0.14807 3.94139,0.22208 4.3855,0.22205 0.29606,3e-5 0.55512,0.3146 0.77718,0.94371 0.25904,0.59217 0.4996,1.36935 0.72166,2.33153 0.22204,0.96226 0.38858,1.5914 0.49962,1.88744 l 8.771,22.26059 c 0.22203,0.55513 0.44408,0.83269 0.66616,0.83269 0.18501,0 0.38856,-0.22205 0.61064,-0.66616 l 10.936,-22.7602 c 0.22201,-0.48108 0.40705,-1.14723 0.55512,-1.99846 0.148,-0.85116 0.29603,-1.53581 0.4441,-2.05397 0.148,-0.55509 0.33304,-0.83265 0.55513,-0.83269 l 1.99846,0 c 0.88816,4e-5 2.07243,-0.074 3.55281,-0.22205 1.48029,-0.14799 2.34999,-0.22201 2.6091,-0.22205 l 0.16654,0 c 0.77713,4e-5 1.16571,0.18508 1.16576,0.55513 -5e-5,0.51815 -0.48115,0.94375 -1.44333,1.27679 -0.96226,0.2961 -1.68393,0.51815 -2.16499,0.66615 -0.44415,0.14807 -0.96227,0.44414 -1.55436,0.88821 -0.59218,0.44413 -0.88824,0.94374 -0.8882,1.49884"
                    id="path4213"
                    style="font-variant:normal;font-stretch:normal;letter-spacing:6.13687229;fill:#000000;font-family:EB Garamond;-inkscape-font-specification:EB Garamond"/>
            <path
                    d="m 702.3089,-126.14723 0,20.5397 c -2e-5,0.4071 0.0555,0.66616 0.16653,0.77718 0.11102,0.074 0.25905,0.0185 0.4441,-0.16654 l 21.09483,-20.48418 c 0.55509,-0.5551 0.83265,-0.9807 0.83269,-1.2768 -4e-5,-1.77637 -1.20281,-2.88662 -3.60833,-3.33076 -1.22131,-0.22201 -1.83194,-0.5921 -1.83192,-1.11025 -2e-5,-0.40706 0.5366,-0.6106 1.60987,-0.61064 1.03621,4e-5 2.16496,0.037 3.38628,0.11103 1.25825,0.037 2.27598,0.0555 3.05319,0.0555 0.5921,3e-5 1.33227,-0.0185 2.22051,-0.0555 0.88817,-0.074 1.86889,-0.11099 2.94217,-0.11103 1.07321,4e-5 1.60983,0.20358 1.60987,0.61064 -4e-5,0.51815 -0.61068,0.88824 -1.83192,1.11025 -1.29533,0.22209 -2.12802,0.62918 -2.49807,1.22128 -0.37012,0.59217 -0.55516,1.48037 -0.55512,2.66461 l 0,25.09174 c -4e-5,1.443332 0.185,2.461064 0.55512,3.053196 0.40706,0.555129 1.27675,0.943718 2.6091,1.165767 1.22124,0.222052 1.83187,0.555128 1.83192,0.999228 -5e-5,0.407093 -0.53667,0.61064 -1.60987,0.61064 -1.07329,0 -2.14653,-0.05551 -3.21974,-0.166538 -1.07328,-0.07402 -1.96148,-0.111025 -2.66461,-0.111025 -0.7402,0 -1.64691,0.03701 -2.72012,0.111025 -1.07327,0.111025 -2.14652,0.166538 -3.21973,0.166538 -1.07328,0 -1.6099,-0.203547 -1.60987,-0.61064 -3e-5,-0.4441 0.61061,-0.777176 1.83192,-0.999228 1.25825,-0.222049 2.18346,-0.573629 2.77563,-1.054741 0.62911,-0.518116 0.94368,-1.295293 0.94372,-2.331532 l 0,-19.37393 c -4e-5,-1.88741 -0.074,-2.83112 -0.22205,-2.83115 -0.0741,3e-5 -0.18508,0.074 -0.33308,0.22205 l -21.53892,20.92829 c -0.25907,0.25906 -0.3886,0.61064 -0.38859,1.05474 -10e-6,1.073248 0.35157,1.850425 1.05474,2.331532 0.70315,0.444103 1.79489,0.795683 3.27525,1.054741 1.22126,0.222052 1.8319,0.555128 1.83192,0.999228 -2e-5,0.407093 -0.53664,0.61064 -1.60987,0.61064 -1.03625,0 -2.18351,-0.05551 -3.44179,-0.166538 -1.22129,-0.07402 -2.23902,-0.111025 -3.0532,-0.111025 -0.74017,0 -1.68389,0.03701 -2.83114,0.111025 -1.14727,0.111025 -2.23902,0.166538 -3.27525,0.166538 -1.07325,0 -1.60987,-0.203547 -1.60987,-0.61064 0,-0.4441 0.61064,-0.777176 1.83192,-0.999228 1.3323,-0.259058 2.2205,-0.66615 2.66461,-1.221279 0.44409,-0.592133 0.66614,-1.572856 0.66615,-2.942174 l 0,-25.09174 c -10e-6,-1.36928 -0.16655,-2.31299 -0.49961,-2.83114 -0.33309,-0.51809 -1.14727,-0.88817 -2.44256,-1.11026 -1.22129,-0.22201 -1.83192,-0.5921 -1.83192,-1.11025 0,-0.40706 0.53662,-0.6106 1.60987,-0.61064 1.07324,4e-5 2.12798,0.037 3.16422,0.11103 1.03623,0.037 1.88742,0.0555 2.55358,0.0555 0.70315,3e-5 1.59136,-0.0185 2.66461,-0.0555 1.07323,-0.074 2.14648,-0.11099 3.21974,-0.11103 1.07323,4e-5 1.60985,0.20358 1.60987,0.61064 -2e-5,0.51815 -0.61066,0.88824 -1.83192,1.11025 -2.51659,0.44414 -3.77488,1.75794 -3.77486,3.9414"
                    id="path4215"
                    style="font-variant:normal;font-stretch:normal;letter-spacing:6.13687229;fill:#000000;font-family:EB Garamond;-inkscape-font-specification:EB Garamond"/>
            <path
                    d="m 750.84272,-98.779469 c -0.18505,0.185046 -0.27757,0.351584 -0.27756,0.499615 -10e-6,0.333078 0.62913,0.499616 1.88743,0.499614 l 14.48881,0 c 0.77715,2e-6 1.29527,-0.129527 1.55436,-0.388589 0.25903,-0.259056 0.38856,-0.721662 0.38859,-1.387817 l 0,-26.646094 c -3e-5,-2.07244 -0.59217,-3.10868 -1.77641,-3.10871 l -7.93831,0 c -0.59216,3e-5 -1.01775,0.18508 -1.2768,0.55513 -0.22206,0.37012 -0.33309,0.99926 -0.33307,1.88743 -2e-5,8.17889 -0.59215,14.41481 -1.77641,18.70778 -1.18428,4.25598 -2.83116,7.38319 -4.94063,9.381641 m 22.48264,-27.312241 0,26.535064 c -3e-5,0.259063 0.074,0.481113 0.22205,0.666152 0.148,0.185045 0.38856,0.351583 0.72167,0.499614 0.33304,0.111028 0.62911,0.203549 0.8882,0.277564 0.29603,0.07402 0.68462,0.148036 1.16577,0.22205 0.51808,0.03701 0.88816,0.05551 1.11025,0.05551 0.25902,2e-6 0.62911,0.01851 1.11026,0.05551 0.51808,2e-6 0.79564,2e-6 0.83269,0 0.40705,2e-6 0.6106,0.333078 0.61064,0.999228 -4e-5,0.296069 -0.16658,1.683885 -0.49962,4.163452 -0.2961,2.479562 -0.48115,4.718571 -0.55513,6.717036 -0.0741,1.147251 -0.55516,1.720882 -1.44333,1.720893 -0.77721,-1.1e-5 -1.1658,-0.795692 -1.16576,-2.387045 -4e-5,-3.478801 -0.33311,-5.84734 -0.99923,-7.105625 -0.66619,-1.258288 -1.99849,-1.887431 -3.99691,-1.887431 l -19.76252,0 c -1.99847,0 -3.33077,0.629143 -3.99692,1.887431 -0.66615,1.295293 -0.99923,3.682336 -0.99923,7.161137 0,1.591353 -0.38859,2.387035 -1.16576,2.387046 -0.88821,-1.1e-5 -1.36932,-0.573642 -1.44333,-1.720893 -0.074,-1.850431 -0.29607,-3.922903 -0.66615,-6.217422 -0.33308,-2.257517 -0.49962,-3.848879 -0.49962,-4.774091 0,-0.629142 0.27756,-0.943714 0.83269,-0.943716 1.62837,2e-6 3.10871,-0.53662 4.44102,-1.609868 1.33229,-1.073246 2.53507,-2.701616 3.60832,-4.885126 1.07324,-2.22049 1.90593,-5.21817 2.49807,-8.99305 0.59213,-3.77484 0.88819,-8.17885 0.88821,-13.21202 -2e-5,-1.07322 -0.25908,-1.8689 -0.77718,-2.38705 -0.48112,-0.55509 -1.40633,-0.96218 -2.77564,-1.22128 -1.22128,-0.22201 -1.83192,-0.5921 -1.83191,-1.11025 -10e-6,-0.40706 0.53661,-0.6106 1.60986,-0.61064 0.29606,4e-5 1.05473,0.037 2.27602,0.11103 1.22127,0.074 2.2205,0.11106 2.99769,0.11102 6.47646,4e-5 11.43559,-0.0185 14.8774,-0.0555 0.77715,3e-5 1.75787,-0.0185 2.94217,-0.0555 1.18424,-0.074 2.29449,-0.11099 3.33076,-0.11103 1.07321,4e-5 1.60983,0.20358 1.60987,0.61064 -4e-5,0.51815 -0.61067,0.88824 -1.83192,1.11025 -1.44336,0.2591 -2.4981,0.68469 -3.16422,1.2768 -0.66618,0.59216 -0.99926,1.49887 -0.99923,2.72012"
                    id="path4217"
                    style="letter-spacing:9.48922157px;fill:#000000"/>
            <path
                    d="m 801.31245,-126.0362 0,25.03622 c -10e-6,1.258296 0.35157,2.20201 1.05474,2.831151 0.74016,0.592137 1.85041,1.017734 3.33076,1.276792 1.22126,0.222052 1.8319,0.555128 1.83192,0.999228 -2e-5,0.407093 -0.53664,0.61064 -1.60987,0.61064 -1.03625,0 -2.18351,-0.05551 -3.44178,-0.166538 -1.22129,-0.07402 -2.23903,-0.111025 -3.0532,-0.111025 -0.88821,0 -2.03547,0.03701 -3.44179,0.111025 -1.40632,0.111025 -2.6276,0.166538 -3.66384,0.166538 -1.07324,0 -1.60986,-0.203547 -1.60986,-0.61064 0,-0.4441 0.61063,-0.777176 1.83192,-0.999228 1.48033,-0.259058 2.57208,-0.684655 3.27524,-1.276792 0.70316,-0.629141 1.05474,-1.572855 1.05475,-2.831151 l 0,-25.09173 c -10e-6,-1.29527 -0.27758,-2.22048 -0.8327,-2.77564 -0.51812,-0.55509 -1.48034,-0.96218 -2.88666,-1.22128 -1.22128,-0.22201 -1.83192,-0.5921 -1.83191,-1.11025 -10e-6,-0.40706 0.53662,-0.6106 1.60986,-0.61064 1.03624,4e-5 2.1835,0.037 3.44179,0.11103 1.25828,0.037 2.29452,0.0555 3.10871,0.0555 l 16.09868,0 c 0.111,3e-5 0.37006,-0.0185 0.77718,-0.0555 0.40707,-0.074 0.62912,-0.11099 0.66615,-0.11103 0.66613,4e-5 0.9992,0.16657 0.99923,0.49961 -3e-5,0.7032 0.0555,1.73944 0.16654,3.10871 0.111,1.36935 0.16651,2.38708 0.16654,3.0532 -3e-5,0.18507 -0.0741,0.37012 -0.22205,0.55513 -0.11106,0.14806 -0.24059,0.22208 -0.38859,0.22205 -0.33311,3e-5 -0.59217,-0.29604 -0.77718,-0.8882 -0.44413,-1.33228 -0.86973,-2.23898 -1.27679,-2.72012 -0.88823,-0.9992 -2.12801,-1.49881 -3.71935,-1.49885 l -8.32691,0 c -0.8512,4e-5 -1.46184,0.2776 -1.83192,0.83269 -0.33308,0.55516 -0.49962,1.42486 -0.49961,2.6091"
                    id="path4219"
                    style="letter-spacing:0px;fill:#000000"/>
            <path
                    d="m 836.87266,-125.64761 -4.99614,13.32304 c -0.074,0.22207 -0.11104,0.37011 -0.11103,0.44411 -10e-6,0.25907 0.38858,0.3886 1.16577,0.38859 l 8.60446,0 c 0.5181,1e-5 0.77716,-0.0925 0.77718,-0.27757 -2e-5,-0.074 -0.037,-0.25904 -0.11102,-0.55513 l -4.38551,-13.26753 c -0.22207,-0.66612 -0.3886,-0.9992 -0.49961,-0.99923 -0.074,3e-5 -0.22207,0.31461 -0.4441,0.94372 m 18.59675,30.365441 c -0.44414,0 -1.6099,-0.05551 -3.4973,-0.166538 -1.88746,-0.111025 -3.29378,-0.166538 -4.21896,-0.166538 -0.77721,0 -1.85045,0.0185 -3.21974,0.05551 -1.36934,0 -2.23904,0 -2.6091,0 -1.07326,0 -1.60989,-0.222051 -1.60986,-0.666153 -3e-5,-0.518117 0.61061,-0.869697 1.83191,-1.054741 2.25749,-0.370082 3.38625,-1.202772 3.38628,-2.498071 -3e-5,-1.11025 -0.70319,-4.01541 -2.10948,-8.71549 -0.11105,-0.40708 -0.61067,-0.61063 -1.49885,-0.61064 l -10.60292,0 c -0.40711,1e-5 -0.72168,0.33309 -0.94372,0.99923 -1.48035,4.29299 -2.22051,6.86507 -2.2205,7.71626 -10e-6,0.777182 0.29605,1.443334 0.8882,1.998457 0.62913,0.555129 1.40631,0.943718 2.33153,1.165767 1.22127,0.333077 1.83191,0.703162 1.83192,1.110254 -10e-6,0.407093 -0.53664,0.610639 -1.60987,0.610639 -0.25907,0 -0.98073,-0.0185 -2.16499,-0.05551 -1.14727,-0.03701 -2.10949,-0.05551 -2.88666,-0.05551 -0.8512,0 -2.03547,0.05551 -3.55281,0.166538 -1.51735,0.111025 -2.55359,0.166538 -3.10871,0.166538 -1.07325,0 -1.60987,-0.240555 -1.60987,-0.721665 0,-0.444101 0.61064,-0.869698 1.83192,-1.276792 2.2205,-0.66615 3.81186,-2.090974 4.77409,-4.274476 3.5528,-8.14185 7.01309,-16.83883 10.38087,-26.09097 0.25904,-0.66612 0.44408,-1.25825 0.55513,-1.7764 0.11101,-0.5551 0.16652,-0.92518 0.16654,-1.11026 -2e-5,-0.22201 0.0185,-0.33304 0.0555,-0.33307 0.99921,-0.33304 1.66536,-0.61061 1.99846,-0.83269 0.22203,-0.148 0.40707,-0.38856 0.55512,-0.72167 0.14802,-0.33304 0.25904,-0.6106 0.33308,-0.83269 0.111,-0.25902 0.20352,-0.38855 0.27756,-0.38859 0.074,4e-5 0.25904,0.44414 0.55513,1.33231 2.7386,8.623 6.03235,18.50424 9.88126,29.64377 0.70313,2.03547 1.4803,3.423291 2.33153,4.163457 0.85116,0.703163 1.94291,1.165768 3.27525,1.387817 1.22124,0.222052 1.83188,0.647649 1.83192,1.276792 -4e-5,0.370085 -0.53666,0.555127 -1.60987,0.555127"
                    id="path4221"
                    style="font-variant:normal;font-stretch:normal;letter-spacing:6.13687229;fill:#000000;font-family:EB Garamond;-inkscape-font-specification:EB Garamond"/>
            <path
                    d="m 886.95304,-120.98455 c -3e-5,-3.25671 -0.83272,-5.66226 -2.49808,-7.21665 -1.6654,-1.55432 -3.92291,-2.33149 -6.77254,-2.33153 -2.36856,4e-5 -3.55283,0.77721 -3.55282,2.33153 l 0,26.47956 c -10e-6,2.775637 1.23977,4.385503 3.71935,4.829603 1.22127,0.222052 1.83191,0.555128 1.83192,0.999228 -10e-6,0.407093 -0.53664,0.61064 -1.60986,0.61064 -1.07326,0 -2.091,-0.07402 -3.0532,-0.222051 -0.96223,-0.111025 -1.75792,-0.166538 -2.38705,-0.166538 -0.92522,0 -2.10949,0.05551 -3.55281,0.166538 -1.44334,0.148034 -2.66461,0.222051 -3.66384,0.222051 -1.07325,0 -1.60987,-0.203547 -1.60987,-0.61064 0,-0.4441 0.61064,-0.777176 1.83192,-0.999228 1.44333,-0.259058 2.47956,-0.684655 3.10871,-1.276792 0.62914,-0.629141 0.94371,-1.609864 0.94372,-2.942171 l 0,-23.42636 c -10e-6,-1.77637 -0.24056,-3.09017 -0.72167,-3.9414 -0.4441,-0.85116 -1.33231,-1.38778 -2.66461,-1.60987 -1.22128,-0.22201 -1.83192,-0.5921 -1.83191,-1.11025 -1e-5,-0.40706 0.53662,-0.6106 1.60986,-0.61064 1.07324,4e-5 2.07247,0.0185 2.99769,0.0555 0.9252,4e-5 1.73939,4e-5 2.44256,0 0.77717,4e-5 1.88742,-0.0555 3.33076,-0.16654 1.44332,-0.11098 2.38703,-0.1665 2.83115,-0.16653 4.18193,3e-5 7.60521,0.88824 10.26984,2.66461 2.66459,1.77643 3.99689,4.14497 3.99692,7.10562 -3e-5,3.62685 -1.09178,6.64304 -3.27525,9.04857 -2.18352,2.40556 -5.31074,3.60834 -9.38165,3.60832 -0.74018,2e-5 -1.35082,-0.11101 -1.83191,-0.33307 -0.44412,-0.22204 -0.66617,-0.46259 -0.66616,-0.72167 -10e-6,-0.14802 0.0925,-0.27755 0.27757,-0.38859 0.22203,-0.14801 0.42558,-0.22203 0.61064,-0.22205 l 0.83269,0.11103 c 0.55511,0.11104 1.12874,0.16655 1.72089,0.16654 4.478,1e-5 6.71701,-3.31224 6.71704,-9.93678"
                    id="path4223"
                    style="letter-spacing:3.16307378px;fill:#000000"/>
            <path
                    d="m 905.81146,-98.779469 c -0.18505,0.185046 -0.27758,0.351584 -0.27757,0.499615 -1e-5,0.333078 0.62914,0.499616 1.88743,0.499614 l 14.48882,0 c 0.77715,2e-6 1.29527,-0.129527 1.55435,-0.388589 0.25903,-0.259056 0.38856,-0.721662 0.38859,-1.387817 l 0,-26.646094 c -3e-5,-2.07244 -0.59216,-3.10868 -1.7764,-3.10871 l -7.93832,0 c -0.59215,3e-5 -1.01775,0.18508 -1.27679,0.55513 -0.22207,0.37012 -0.33309,0.99926 -0.33308,1.88743 -1e-5,8.17889 -0.59215,14.41481 -1.7764,18.70778 -1.18429,4.25598 -2.83116,7.38319 -4.94063,9.381641 m 22.48264,-27.312241 0,26.535064 c -4e-5,0.259063 0.074,0.481113 0.22205,0.666152 0.148,0.185045 0.38855,0.351583 0.72166,0.499614 0.33305,0.111028 0.62911,0.203549 0.88821,0.277564 0.29603,0.07402 0.68462,0.148036 1.16576,0.22205 0.51809,0.03701 0.88817,0.05551 1.11026,0.05551 0.25902,2e-6 0.6291,0.01851 1.11025,0.05551 0.51808,2e-6 0.79564,2e-6 0.83269,0 0.40705,2e-6 0.6106,0.333078 0.61064,0.999228 -4e-5,0.296069 -0.16658,1.683885 -0.49961,4.163452 -0.29611,2.479562 -0.48115,4.718571 -0.55513,6.717036 -0.0741,1.147251 -0.55517,1.720882 -1.44333,1.720893 -0.77721,-1.1e-5 -1.1658,-0.795692 -1.16577,-2.387045 -3e-5,-3.478801 -0.33311,-5.84734 -0.99923,-7.105625 -0.66618,-1.258288 -1.99849,-1.887431 -3.99691,-1.887431 l -19.76252,0 c -1.99846,0 -3.33077,0.629143 -3.99691,1.887431 -0.66616,1.295293 -0.99924,3.682336 -0.99923,7.161137 -10e-6,1.591353 -0.38859,2.387035 -1.16577,2.387046 -0.8882,-1.1e-5 -1.36931,-0.573642 -1.44333,-1.720893 -0.074,-1.850431 -0.29607,-3.922903 -0.66615,-6.217422 -0.33308,-2.257517 -0.49961,-3.848879 -0.49961,-4.774091 0,-0.629142 0.27756,-0.943714 0.83269,-0.943716 1.62837,2e-6 3.1087,-0.53662 4.44101,-1.609868 1.3323,-1.073246 2.53507,-2.701616 3.60833,-4.885126 1.07323,-2.22049 1.90592,-5.21817 2.49807,-8.99305 0.59212,-3.77484 0.88819,-8.17885 0.8882,-13.21202 -1e-5,-1.07322 -0.25907,-1.8689 -0.77718,-2.38705 -0.48112,-0.55509 -1.40633,-0.96218 -2.77563,-1.22128 -1.22129,-0.22201 -1.83193,-0.5921 -1.83192,-1.11025 -10e-6,-0.40706 0.53661,-0.6106 1.60987,-0.61064 0.29606,4e-5 1.05473,0.037 2.27602,0.11103 1.22126,0.074 2.22049,0.11106 2.99768,0.11102 6.47646,4e-5 11.43559,-0.0185 14.87741,-0.0555 0.77714,3e-5 1.75787,-0.0185 2.94217,-0.0555 1.18423,-0.074 2.29449,-0.11099 3.33076,-0.11103 1.07321,4e-5 1.60983,0.20358 1.60987,0.61064 -4e-5,0.51815 -0.61068,0.88824 -1.83192,1.11025 -1.44337,0.2591 -2.49811,0.68469 -3.16422,1.2768 -0.66619,0.59216 -0.99927,1.49887 -0.99923,2.72012"
                    id="path4225"
                    style="font-variant:normal;font-stretch:normal;letter-spacing:6.13687229;fill:#000000;font-family:EB Garamond;-inkscape-font-specification:EB Garamond"/>
        </g>
        <g
                transform="matrix(0.85112231,0,0,0.83627599,290.17926,180.19898)"
                id="flowRoot4082"
                style="font-size:52.13198853px;font-style:normal;font-variant:normal;font-weight:normal;font-stretch:normal;text-align:start;line-height:125%;letter-spacing:0px;word-spacing:0px;writing-mode:lr-tb;text-anchor:start;fill:#000000;fill-opacity:1;stroke:none;font-family:EB Garamond;-inkscape-font-specification:EB Garamond">
            <path
                    d="m -140.34346,850.41887 c -0.31281,2e-5 -0.4692,0.33019 -0.46919,0.99051 l 0,10.32213 c -1e-5,2.57185 1.19902,4.0663 3.59711,4.48335 1.14688,0.20853 1.72034,0.52132 1.72035,0.93838 -1e-5,0.3823 -0.50396,0.57345 -1.51183,0.57345 -1.00789,0 -1.96365,-0.0695 -2.86725,-0.20853 -0.90364,-0.10426 -1.65086,-0.15639 -2.24168,-0.15639 -0.83412,0 -1.89414,0.0521 -3.18005,0.15639 -1.28593,0.13902 -2.41545,0.20853 -3.38858,0.20853 -1.00789,0 -1.51183,-0.19115 -1.51183,-0.57345 0,-0.41706 0.57345,-0.72985 1.72036,-0.93838 1.32067,-0.24328 2.22429,-0.64296 2.71086,-1.19903 0.52131,-0.59083 0.78197,-1.5292 0.78198,-2.81513 l 0,-23.4594 c -10e-6,-1.18162 -0.26067,-2.03311 -0.78198,-2.55446 -0.48657,-0.52129 -1.39019,-0.90359 -2.71086,-1.14691 -1.14691,-0.20849 -1.72036,-0.55604 -1.72036,-1.04264 0,-0.38226 0.50394,-0.57341 1.51183,-0.57345 0.97313,4e-5 2.03314,0.0348 3.18005,0.10427 1.18165,0.0348 2.15478,0.0522 2.91939,0.0521 0.55607,3e-5 1.23378,-0.0173 2.03315,-0.0521 0.8341,-0.0695 1.7551,-0.10423 2.76299,-0.10427 1.00787,4e-5 1.51182,0.19119 1.51183,0.57345 -10e-6,0.4866 -0.57346,0.83415 -1.72035,1.04264 -1.21643,0.20856 -1.99841,0.59086 -2.34594,1.14691 -0.31281,0.5561 -0.4692,1.40759 -0.46919,2.55446 l 0,9.01884 c -1e-5,0.66036 0.10425,0.99052 0.31279,0.99051 2.05051,1e-5 3.33643,-0.0869 3.85777,-0.26066 0.55606,-0.17376 1.09475,-0.46917 1.61609,-0.88625 0.55606,-0.45179 1.00787,-0.9036 1.35543,-1.35543 0.38228,-0.45179 0.78196,-1.09475 1.19904,-1.92888 0.45179,-0.83409 0.78196,-1.49443 0.99051,-1.98102 0.24326,-0.52129 0.57343,-1.28589 0.9905,-2.29381 0.45179,-1.00785 0.76458,-1.70295 0.93838,-2.08528 0.69507,-1.59868 1.47705,-2.84985 2.34594,-3.7535 0.90359,-0.90359 2.12001,-1.3554 3.64924,-1.35543 1.07736,3e-5 1.87672,0.24332 2.39807,0.72985 0.52129,0.4866 0.78195,1.11218 0.78198,1.87675 -3e-5,0.62561 -0.17381,1.19907 -0.52132,1.72035 -0.31282,0.4866 -0.79939,0.72988 -1.4597,0.72985 -0.34757,3e-5 -0.83414,-0.12161 -1.45969,-0.36492 -0.62561,-0.27801 -1.07742,-0.41703 -1.35543,-0.41706 -0.38233,3e-5 -0.69512,0.0348 -0.93838,0.10427 -0.20855,0.0695 -0.48659,0.31282 -0.83411,0.72984 -0.31282,0.38233 -0.62561,0.95579 -0.93838,1.72036 -0.10429,0.24331 -0.38232,0.92103 -0.83411,2.03315 -0.45183,1.07742 -0.782,1.84202 -0.99051,2.2938 -0.20855,0.45184 -0.53872,1.07742 -0.9905,1.87676 -0.45184,0.79937 -0.92102,1.42496 -1.40757,1.87675 -0.45183,0.41707 -0.95577,0.74724 -1.51183,0.99051 -0.52133,0.20854 -0.53871,0.38232 -0.0521,0.52132 0.0347,0.0348 0.17376,0.0869 0.41706,0.15639 0.27802,0.0695 0.48654,0.13904 0.62558,0.20853 0.139,0.0695 0.33015,0.17379 0.57345,0.31279 0.24327,0.13904 0.48655,0.29543 0.72985,0.46919 0.24326,0.17379 0.46917,0.38232 0.67772,0.62558 0.45179,0.52134 1.54656,2.62399 3.28431,6.30797 1.77246,3.684 3.24954,6.16896 4.43122,7.45488 0.76457,0.83411 2.46755,1.28592 5.10894,1.35543 0.38226,0 0.57341,0.20853 0.57345,0.62558 -4e-5,0.24329 -0.13905,0.46919 -0.41706,0.67772 -0.90365,0.62558 -2.34597,0.93837 -4.32695,0.93838 -0.76463,-10e-6 -1.40759,-0.0521 -1.92889,-0.1564 -0.52134,-0.0695 -1.14693,-0.27804 -1.87675,-0.62558 -0.69512,-0.34755 -1.35545,-0.93838 -1.98101,-1.77249 -0.62561,-0.83411 -1.23382,-1.9115 -1.82462,-3.23219 -0.38233,-0.90361 -0.99053,-2.25904 -1.82462,-4.06629 -0.79938,-1.80723 -1.26857,-2.86725 -1.40757,-3.18005 -0.59084,-1.32067 -1.28594,-2.39806 -2.08528,-3.23219 -0.79937,-0.86885 -1.54659,-1.37279 -2.24167,-1.51182 -0.69511,-0.139 -1.75512,-0.20851 -3.18005,-0.20853"
                    id="path4192"
                    style="line-height:125%;fill:#000000;font-family:EB Garamond;-inkscape-font-specification:EB Garamond"/>
            <path
                    d="m -115.76405,850.78379 c 0,-3.23216 0.66034,-6.16893 1.98102,-8.8103 1.35543,-2.67608 3.42333,-4.86562 6.20371,-6.56863 2.78036,-1.70295 6.04729,-2.55444 9.80081,-2.55447 4.657099,3e-5 8.671259,1.61612 12.04249,4.84827 3.371166,3.19746 5.056765,7.29851 5.056802,12.30315 -3.7e-5,2.36334 -0.382338,4.63976 -1.146903,6.82929 -0.764638,2.1548 -1.876786,4.08368 -3.336448,5.78665 -1.424972,1.70299 -3.266967,3.05842 -5.52599,4.0663 -2.259078,1.00788 -4.761411,1.51183 -7.507007,1.51183 -4.691894,0 -8.792944,-1.6856 -12.303154,-5.05681 -3.51022,-3.37119 -5.26533,-7.48961 -5.26533,-12.35528 m 17.20356,-15.90025 c -3.68401,3e-5 -6.63815,1.42497 -8.86244,4.27482 -2.18955,2.84991 -3.28432,6.20373 -3.28431,10.06147 -1e-5,4.58763 1.25116,8.56704 3.7535,11.93823 2.53708,3.33645 5.68237,5.00467 9.43589,5.00467 3.822988,0 6.742377,-1.28592 8.758174,-3.85777 2.015739,-2.60659 3.023623,-6.18632 3.023656,-10.73919 -3.3e-5,-5.07416 -1.112181,-9.12307 -3.336448,-12.14675 -2.224325,-3.02362 -5.386996,-4.53545 -9.488022,-4.53548"
                    id="path4194"
                    style="line-height:125%;fill:#000000;font-family:EB Garamond;-inkscape-font-specification:EB Garamond"/>
            <path
                    d="m -42.744232,862.25283 c -3.6e-5,1.35544 0.15636,2.31119 0.469188,2.86726 0.34751,0.52132 1.146866,0.88625 2.398071,1.09477 1.146864,0.20853 1.720316,0.52132 1.720356,0.93838 -4e-5,0.3823 -0.503982,0.57345 -1.511828,0.57345 -1.007923,0 -1.998429,-0.0521 -2.971523,-0.1564 -0.973165,-0.0695 -1.789899,-0.10426 -2.450204,-0.10426 -0.660371,0 -1.511859,0.0347 -2.554467,0.10426 -1.042669,0.10427 -2.050554,0.1564 -3.023655,0.1564 -1.007912,0 -1.511854,-0.19115 -1.511828,-0.57345 -2.6e-5,-0.41706 0.573425,-0.72985 1.720356,-0.93838 2.363286,-0.45181 3.544943,-1.72035 3.544975,-3.80563 l 0,-9.90508 c -3.2e-5,-0.52131 -0.08692,-0.78197 -0.26066,-0.78198 l -19.91442,0 c -0.173784,10e-6 -0.260671,0.19117 -0.26066,0.57345 l 0,9.64442 c -1.1e-5,1.0774 0.38229,2.01577 1.146904,2.81513 0.76459,0.7646 1.755096,1.25117 2.971523,1.45969 1.146888,0.20853 1.720339,0.52132 1.720356,0.93838 -1.7e-5,0.3823 -0.503959,0.57345 -1.511828,0.57345 -0.973144,0 -2.050538,-0.0521 -3.232183,-0.1564 -1.146915,-0.0695 -2.102667,-0.10426 -2.867259,-0.10426 -0.695102,0 -1.581345,0.0347 -2.658732,0.10426 -1.0774,0.10427 -2.102661,0.1564 -3.075787,0.1564 -1.007888,0 -1.51183,-0.19115 -1.511828,-0.57345 -2e-6,-0.41706 0.57345,-0.72985 1.720356,-0.93838 1.251163,-0.24328 2.085274,-0.62558 2.502335,-1.1469 0.41705,-0.55607 0.625577,-1.47707 0.625584,-2.763 l 0,-23.56366 c -7e-6,-1.28589 -0.156402,-2.17213 -0.469188,-2.65873 -0.312798,-0.48653 -1.077399,-0.83408 -2.293807,-1.04264 -1.146907,-0.20849 -1.720358,-0.55604 -1.720356,-1.04264 -2e-6,-0.38226 0.50394,-0.57341 1.511828,-0.57345 1.00788,4e-5 1.998387,0.0348 2.971523,0.10427 0.973123,0.0348 1.772479,0.0522 2.398072,0.0521 0.660328,3e-5 1.494439,-0.0173 2.502335,-0.0521 1.007873,-0.0695 2.015757,-0.10423 3.023655,-0.10427 1.00787,4e-5 1.511812,0.19119 1.511828,0.57345 -1.6e-5,0.4866 -0.573467,0.83415 -1.720355,1.04264 -2.363329,0.41709 -3.544987,1.65088 -3.544976,3.70137 l 0,10.00935 c -1.1e-5,0.31281 0.243272,0.4692 0.729848,0.46918 l 19.340968,0 c 0.243251,2e-5 0.364892,-0.20851 0.364924,-0.62558 l 0,-9.90508 c -3.2e-5,-2.01574 -1.146934,-3.23215 -3.440711,-3.64924 -1.146931,-0.20849 -1.720382,-0.55604 -1.720356,-1.04264 -2.6e-5,-0.38226 0.503916,-0.57341 1.511828,-0.57345 0.973101,4e-5 2.033117,0.0348 3.180051,0.10427 1.181626,0.0348 2.137378,0.0522 2.867259,0.0521 0.55604,3e-5 1.233756,-0.0173 2.033148,-0.0521 0.79932,-0.0695 1.702941,-0.10423 2.710863,-0.10427 1.007846,4e-5 1.511788,0.19119 1.511828,0.57345 -4e-5,0.4866 -0.573491,0.83415 -1.720356,1.04264 -1.181695,0.20856 -1.946297,0.59086 -2.293807,1.14691 -0.312828,0.52135 -0.469224,1.35546 -0.469188,2.50233 l 0,23.56366"
                    id="path4196"
                    style="line-height:125%;fill:#000000;font-family:EB Garamond;-inkscape-font-specification:EB Garamond"/>
            <path
                    d="m -24.052474,864.96369 c 0.834099,10e-6 1.737719,-1.00788 2.710863,-3.02365 0.312777,-0.55607 0.469173,-1.00788 0.469188,-1.35543 -1.5e-5,-0.27803 -0.208543,-0.86886 -0.625584,-1.77249 l -8.601778,-18.55899 c -0.799362,-1.70295 -1.511832,-2.93674 -2.137411,-3.70137 -0.590833,-0.79933 -1.390189,-1.26851 -2.398072,-1.40756 -1.146904,-0.13899 -1.720355,-0.52129 -1.720355,-1.14691 0,-0.38226 0.503942,-0.57341 1.511827,-0.57345 0.451809,4e-5 1.355429,0.0348 2.710864,0.10427 1.390181,0.0348 2.519706,0.0522 3.388579,0.0521 0.590821,3e-5 1.355423,-0.0173 2.293807,-0.0521 0.938366,-0.0347 1.563949,-0.0521 1.876752,-0.0521 1.007873,4e-5 1.511815,0.19119 1.511828,0.57345 -1.3e-5,0.31283 -0.573465,0.66038 -1.720356,1.04264 -1.320687,0.38234 -1.981025,1.0253 -1.981015,1.92889 -10e-6,0.20856 0.05212,0.46922 0.156396,0.78198 0.104254,0.31282 0.208518,0.60823 0.312791,0.88624 0.139009,0.24331 0.347537,0.64299 0.625584,1.19904 0.312782,0.5561 0.538687,0.99053 0.677716,1.3033 l 5.995179,12.25101 c 0.417038,1.0079 0.695075,1.51184 0.834112,1.51183 0.243264,10e-6 0.59081,-0.50393 1.042639,-1.51183 l 6.307971,-14.28416 c 0.243257,-0.62556 0.364898,-1.07737 0.364924,-1.35543 -2.6e-5,-0.62556 -0.29544,-1.16425 -0.886244,-1.61609 -0.556099,-0.48654 -1.199059,-0.83408 -1.928883,-1.04264 -1.146926,-0.31276 -1.720377,-0.66031 -1.720356,-1.04264 -2.1e-5,-0.38227 0.503921,-0.57342 1.511828,-0.57345 0.521296,3e-5 1.181634,0.0174 1.981015,0.0521 0.799332,3e-5 1.442293,3e-5 1.9288837,0 0.6950661,3e-5 1.6160636,-0.0173 2.7629954,-0.0521 1.1468734,-0.0695 1.8940978,-0.10423 2.2416755,-0.10427 1.0078527,4e-5 1.5117947,0.19119 1.5118277,0.57345 -3.3e-5,0.45185 -0.5734843,0.79939 -1.7203556,1.04264 -1.5292348,0.31283 -2.7630239,1.61613 -3.7013712,3.9099 l -7.5591385,16.9429 c -2.224316,4.96992 -4.083688,8.49752 -5.578123,10.58279 -1.494463,2.05053 -2.93678,3.07579 -4.326955,3.07579 -1.216422,0 -2.206928,-0.29542 -2.971523,-0.88624 -0.729854,-0.55608 -1.094778,-1.26855 -1.094772,-2.13742 -6e-6,-0.72984 0.191145,-1.39018 0.573452,-1.98101 0.417049,-0.59083 0.920991,-0.88624 1.511828,-0.88625 0.625575,10e-6 1.251158,0.22591 1.876751,0.67772 0.625574,0.41706 1.285911,0.62559 1.981016,0.62558"
                    id="path4198"
                    style="line-height:125%;fill:#000000;font-family:EB Garamond;-inkscape-font-specification:EB Garamond"/>
            <path
                    d="m 32.70459,862.25283 c -3.6e-5,1.35544 0.15636,2.31119 0.469188,2.86726 0.34751,0.52132 1.146866,0.88625 2.398071,1.09477 1.146864,0.20853 1.720316,0.52132 1.720356,0.93838 -4e-5,0.3823 -0.503982,0.57345 -1.511828,0.57345 -1.007923,0 -1.998429,-0.0521 -2.971523,-0.1564 -0.973165,-0.0695 -1.789899,-0.10426 -2.450204,-0.10426 -0.660371,0 -1.511859,0.0347 -2.554467,0.10426 -1.042669,0.10427 -2.050554,0.1564 -3.023655,0.1564 -1.007912,0 -1.511854,-0.19115 -1.511828,-0.57345 -2.6e-5,-0.41706 0.573425,-0.72985 1.720356,-0.93838 2.363286,-0.45181 3.544943,-1.72035 3.544975,-3.80563 l 0,-9.90508 c -3.2e-5,-0.52131 -0.08692,-0.78197 -0.26066,-0.78198 l -19.9144197,0 c -0.1737844,10e-6 -0.2606709,0.19117 -0.26066,0.57345 l 0,9.64442 c -1.09e-5,1.0774 0.3822899,2.01577 1.1469038,2.81513 0.7645899,0.7646 1.7550959,1.25117 2.9715229,1.45969 1.146888,0.20853 1.720339,0.52132 1.720356,0.93838 -1.7e-5,0.3823 -0.503959,0.57345 -1.511828,0.57345 -0.973144,0 -2.050538,-0.0521 -3.2321829,-0.1564 -1.1469147,-0.0695 -2.1026668,-0.10426 -2.8672594,-0.10426 -0.6951016,0 -1.5813446,0.0347 -2.6587314,0.10426 -1.0773999,0.10427 -2.1026613,0.1564 -3.07578733,0.1564 -1.00788754,0 -1.51182959,-0.19115 -1.51182766,-0.57345 -1.93e-6,-0.41706 0.57344937,-0.72985 1.72035562,-0.93838 1.25116287,-0.24328 2.08527377,-0.62558 2.50233547,-1.1469 0.4170493,-0.55607 0.6255771,-1.47707 0.6255838,-2.763 l 0,-23.56366 c -6.7e-6,-1.28589 -0.1564025,-2.17213 -0.4691879,-2.65873 -0.3127979,-0.48653 -1.0773996,-0.83408 -2.2938075,-1.04264 -1.14690657,-0.20849 -1.72035787,-0.55604 -1.72035557,-1.04264 -2.3e-6,-0.38226 0.50393975,-0.57341 1.51182766,-0.57345 1.00788031,4e-5 1.99838711,0.0348 2.97152331,0.10427 0.9731227,0.0348 1.7724791,0.0522 2.3980715,0.0521 0.6603287,3e-5 1.4944397,-0.0173 2.5023355,-0.0521 1.0078724,-0.0695 2.0157568,-0.10423 3.0236548,-0.10427 1.00787,4e-5 1.511812,0.19119 1.511828,0.57345 -1.6e-5,0.4866 -0.573467,0.83415 -1.720355,1.04264 -2.3633294,0.41709 -3.5449866,1.65088 -3.5449757,3.70137 l 0,10.00935 c -1.09e-5,0.31281 0.2432714,0.4692 0.7298479,0.46918 l 19.3409678,0 c 0.243251,2e-5 0.364892,-0.20851 0.364924,-0.62558 l 0,-9.90508 c -3.2e-5,-2.01574 -1.146934,-3.23215 -3.440711,-3.64924 -1.146931,-0.20849 -1.720382,-0.55604 -1.720356,-1.04264 -2.6e-5,-0.38226 0.503916,-0.57341 1.511828,-0.57345 0.973101,4e-5 2.033117,0.0348 3.180051,0.10427 1.181626,0.0348 2.137378,0.0522 2.867259,0.0521 0.556041,3e-5 1.233756,-0.0173 2.033148,-0.0521 0.79932,-0.0695 1.702941,-0.10423 2.710863,-0.10427 1.007846,4e-5 1.511788,0.19119 1.511828,0.57345 -4e-5,0.4866 -0.573491,0.83415 -1.720356,1.04264 -1.181695,0.20856 -1.946297,0.59086 -2.293807,1.14691 -0.312828,0.52135 -0.469224,1.35546 -0.469188,2.50233 l 0,23.56366"
                    id="path4200"
                    style="line-height:125%;fill:#000000;font-family:EB Garamond;-inkscape-font-specification:EB Garamond"/>
            <path
                    d="m 50.353723,838.84557 0,23.51152 c -1e-5,1.18167 0.330158,2.06791 0.990508,2.65874 0.695081,0.55607 1.73772,0.95575 3.12792,1.19903 1.146887,0.20853 1.720338,0.52132 1.720355,0.93838 -1.7e-5,0.3823 -0.503959,0.57345 -1.511828,0.57345 -0.973144,0 -2.050538,-0.0521 -3.232183,-0.1564 -1.146914,-0.0695 -2.102667,-0.10426 -2.867259,-0.10426 -0.83412,0 -1.911514,0.0347 -3.232183,0.10426 -1.320682,0.10427 -2.467585,0.1564 -3.440712,0.1564 -1.007886,0 -1.511828,-0.19115 -1.511827,-0.57345 -1e-6,-0.41706 0.57345,-0.72985 1.720355,-0.93838 1.390183,-0.24328 2.415444,-0.64296 3.075788,-1.19903 0.660332,-0.59083 0.990501,-1.47707 0.990507,-2.65874 l 0,-23.56365 c -6e-6,-1.21639 -0.260666,-2.08525 -0.781979,-2.6066 -0.486571,-0.52129 -1.390191,-0.90359 -2.710864,-1.14691 -1.146906,-0.20849 -1.720357,-0.55604 -1.720355,-1.04264 -2e-6,-0.38226 0.50394,-0.57341 1.511827,-0.57345 0.973127,4e-5 2.05052,0.0348 3.232183,0.10427 1.181651,0.0348 2.154781,0.0522 2.919392,0.0521 l 15.118277,0 c 0.104239,3e-5 0.347521,-0.0173 0.729847,-0.0521 0.382276,-0.0695 0.590804,-0.10423 0.625584,-0.10427 0.625558,4e-5 0.938349,0.15643 0.938376,0.46919 -2.7e-5,0.66037 0.0521,1.6335 0.156396,2.91939 0.104237,1.28595 0.156369,2.2417 0.156396,2.86726 -2.7e-5,0.1738 -0.06954,0.34757 -0.208528,0.52132 -0.104291,0.13905 -0.225932,0.20855 -0.364924,0.20853 -0.312818,2e-5 -0.5561,-0.27801 -0.729848,-0.83411 -0.417081,-1.25114 -0.816759,-2.10263 -1.199036,-2.55447 -0.834135,-0.93835 -1.998415,-1.40753 -3.492843,-1.40757 l -7.819798,0 c -0.79937,4e-5 -1.372821,0.2607 -1.720356,0.78198 -0.312803,0.52135 -0.469198,1.33809 -0.469188,2.45021"
                    id="path4202"
                    style="line-height:125%;fill:#000000;font-family:EB Garamond;-inkscape-font-specification:EB Garamond"/>
            <path
                    d="m 96.937727,860.32395 c 0.104234,-0.17377 0.243252,-0.31279 0.417056,-0.41706 0.173742,-0.13901 0.347515,-0.26065 0.52132,-0.36492 0.208496,-0.10426 0.330137,-0.17377 0.364924,-0.20853 0.03472,-0.0348 0.06948,-0.0521 0.104264,-0.0521 0.24325,10e-6 0.364892,0.33017 0.364924,0.99051 -3.2e-5,0.0695 -0.01741,0.1564 -0.05213,0.26066 -3.2e-5,0.0695 -3.2e-5,0.12164 0,0.15639 -0.382333,2.46759 -0.955785,4.27483 -1.720356,5.42173 -0.139049,0.24328 -0.990537,0.60821 -2.554467,1.09477 -2.224324,0.69509 -5.143713,1.04264 -8.758174,1.04264 -4.691894,0 -8.671298,-1.73773 -11.938226,-5.2132 -3.266942,-3.47546 -4.900409,-7.61126 -4.900407,-12.40741 -2e-6,-4.9699 1.876748,-9.15783 5.630255,-12.56381 3.753492,-3.44068 8.202083,-5.16103 13.345789,-5.16107 2.432803,4e-5 4.274798,0.20856 5.525991,0.62559 1.25114,0.41708 2.571815,0.72988 3.962031,0.93837 0.38227,0.0348 0.608175,0.55611 0.677716,1.56396 0.243251,1.87678 0.382269,3.77091 0.417056,5.68239 0.03472,0.27806 -3.2e-5,0.5561 -0.104264,0.83411 -0.06954,0.27806 -0.225937,0.3997 -0.469188,0.36492 -0.695124,-0.0695 -1.146934,-0.71244 -1.355432,-1.92888 -0.208557,-1.59869 -0.816763,-2.86723 -1.824619,-3.80564 -1.772514,-1.77245 -4.326979,-2.65869 -7.663403,-2.65873 -3.718765,4e-5 -6.811926,1.49448 -9.279494,4.48335 -2.432834,2.95418 -3.649246,6.41226 -3.649239,10.37427 -7e-6,2.88465 0.521312,5.63027 1.56396,8.23685 1.042629,2.60661 2.58921,4.7614 4.639747,6.46437 2.085264,1.70298 4.431201,2.55447 7.037818,2.55447 4.309553,0 7.541733,-2.10266 9.69655,-6.30797"
                    id="path4204"
                    style="line-height:125%;fill:#000000;font-family:EB Garamond;-inkscape-font-specification:EB Garamond"/>
            <path
                    d="m 119.38706,862.14857 c -2e-5,2.2243 1.37279,3.57973 4.11843,4.06629 1.14687,0.20853 1.72033,0.52132 1.72035,0.93838 -2e-5,0.3823 -0.50397,0.57345 -1.51183,0.57345 -0.97315,0 -2.05054,-0.0521 -3.23218,-0.1564 -1.14692,-0.0695 -2.10268,-0.10426 -2.86726,-0.10426 -0.83413,0 -1.91152,0.0347 -3.23218,0.10426 -1.32069,0.10427 -2.4676,0.1564 -3.44071,0.1564 -1.0079,0 -1.51184,-0.19115 -1.51183,-0.57345 -1e-5,-0.41706 0.57344,-0.72985 1.72035,-0.93838 1.35542,-0.24328 2.36331,-0.67771 3.02366,-1.3033 0.69508,-0.62558 1.04262,-1.54658 1.04264,-2.76299 l 0,-23.72006 c -2e-5,-1.39015 -0.31281,-2.13738 -0.93838,-2.24167 -0.66035,-0.13899 -1.94627,-0.2085 -3.85776,-0.20853 l -2.45021,0 c -0.90363,3e-5 -1.75511,0.1738 -2.55446,0.52132 -0.79937,0.34758 -1.37282,0.85152 -1.72036,1.51183 -0.20853,0.41708 -0.5387,0.85151 -0.99051,1.3033 -0.41706,0.45183 -0.79936,0.67774 -1.1469,0.67771 -0.24329,3e-5 -0.36493,-0.22588 -0.36493,-0.67771 0,-0.34752 0.0869,-0.69507 0.26066,-1.04264 0.7646,-1.59869 1.3033,-3.52757 1.6161,-5.78665 0.10426,-0.79933 0.39967,-1.199 0.88624,-1.19904 0.27803,4e-5 0.71247,0.55611 1.3033,1.66822 0.3823,0.69513 1.59871,1.04268 3.64924,1.04264 l 19.86229,0 c 1.32064,4e-5 2.32853,-0.24325 3.02365,-0.72984 0.24325,-0.17374 0.53867,-0.4344 0.88625,-0.78198 0.38226,-0.34752 0.69506,-0.60818 0.93837,-0.78198 0.278,-0.2085 0.53866,-0.31276 0.78198,-0.3128 0.24325,4e-5 0.36489,0.39972 0.36493,1.19904 -4e-5,0.0695 -0.0174,0.15643 -0.0521,0.26066 -3e-5,0.1043 -3e-5,0.17381 0,0.20853 -0.55611,2.29384 -0.83414,4.01419 -0.83411,5.16106 l 0,0.62559 c -3e-5,0.34757 -0.0869,0.7125 -0.26066,1.09477 -0.13905,0.38233 -0.3302,0.57348 -0.57345,0.57345 -0.38233,3e-5 -0.7125,-0.71244 -0.99051,-2.13741 -0.27807,-1.59868 -1.87678,-2.39804 -4.79614,-2.39807 l -4.95254,0 c -1.3207,3e-5 -2.13743,0.13905 -2.4502,0.41705 -0.31282,0.24332 -0.46921,0.90366 -0.46919,1.98102 l 0,23.77219"
                    id="path4206"
                    style="line-height:125%;fill:#000000;font-family:EB Garamond;-inkscape-font-specification:EB Garamond"/>
            <path
                    d="m 149.67166,865.53715 c 2.08526,0 3.96201,-0.7646 5.63025,-2.29381 1.6682,-1.56396 2.50232,-3.44071 2.50234,-5.63026 -2e-5,-3.05839 -1.28595,-5.30007 -3.85777,-6.72502 -1.56398,-0.86885 -3.37122,-1.30328 -5.42173,-1.3033 -1.00789,2e-5 -1.75512,0.20854 -2.24167,0.62558 -0.48658,0.38232 -0.72986,0.79937 -0.72985,1.25117 l 0,10.37426 c -1e-5,1.3902 0.33016,2.36332 0.99051,2.9194 0.66033,0.52132 1.70296,0.78198 3.12792,0.78198 m -5.68239,1.92888 c -0.86887,0 -1.96364,0.0347 -3.28431,0.10426 -1.28593,0.10427 -2.45021,0.1564 -3.49285,0.1564 -1.00788,0 -1.51183,-0.19115 -1.51182,-0.57345 -1e-5,-0.41706 0.57345,-0.72985 1.72035,-0.93838 1.39018,-0.24328 2.41544,-0.66033 3.07579,-1.25117 0.66033,-0.59082 0.9905,-1.47706 0.99051,-2.65873 l 0,-23.45939 c -1e-5,-1.25114 -0.27805,-2.17214 -0.83412,-2.763 -0.52132,-0.59079 -1.40756,-0.93834 -2.65873,-1.04264 -1.1469,-0.10423 -1.72035,-0.45177 -1.72035,-1.04264 0,-0.38226 0.50394,-0.57341 1.51183,-0.57345 1.00788,4e-5 1.99838,0.0174 2.97152,0.0521 0.97312,4e-5 1.78986,4e-5 2.4502,0 0.55607,4e-5 1.3728,-0.0347 2.45021,-0.10426 1.11213,-0.10423 2.22428,-0.15636 3.33644,-0.1564 3.92726,4e-5 6.82927,0.60824 8.70604,1.82462 1.91149,1.18169 2.86724,3.16271 2.86726,5.94305 -2e-5,2.15481 -0.59085,3.82303 -1.77248,5.00467 -1.04267,0.97315 -2.20695,1.72038 -3.49285,2.24168 -0.13904,0.0695 -0.20855,0.15641 -0.20852,0.26066 -3e-5,0.10428 0.0695,0.19117 0.20852,0.26066 1.04262,0.31281 1.89411,0.6256 2.55447,0.93837 0.66032,0.31281 1.40754,0.79938 2.24168,1.4597 0.86884,0.6256 1.5118,1.45971 1.92888,2.50233 0.45178,1.04266 0.67769,2.27644 0.67772,3.70137 -3e-5,1.35544 -0.17381,2.5371 -0.52132,3.54498 -0.31282,1.00789 -0.79939,1.842 -1.4597,2.50233 -0.62561,0.66035 -1.16431,1.14691 -1.61609,1.4597 -0.45184,0.31279 -1.06004,0.66034 -1.82462,1.04264 -2.36334,1.18166 -5.14371,1.77249 -8.34112,1.77249 -0.20854,0 -0.88626,-0.0348 -2.03315,-0.10427 -1.14691,-0.0695 -2.12004,-0.10426 -2.91939,-0.10426 m 3.96203,-19.34097 c 2.18953,2e-5 4.11841,-0.50392 5.78665,-1.51183 0.55606,-0.31277 1.07738,-0.88622 1.56396,-1.72035 0.5213,-0.83409 0.78196,-1.91148 0.78198,-3.23218 -2e-5,-1.87673 -0.52134,-3.49282 -1.56396,-4.84828 -1.04266,-1.3554 -2.88465,-2.03311 -5.52599,-2.03315 -1.35544,4e-5 -2.27644,0.19119 -2.76299,0.57345 -0.45182,0.34758 -0.67773,0.93841 -0.67772,1.77249 l 0,9.07097 c -1e-5,1.28594 0.79935,1.9289 2.39807,1.92888"
                    id="path4208"
                    style="line-height:125%;fill:#000000;font-family:EB Garamond;-inkscape-font-specification:EB Garamond"/>
            <path
                    d="m 167.19454,850.78379 c 0,-3.23216 0.66034,-6.16893 1.98102,-8.8103 1.35542,-2.67608 3.42332,-4.86562 6.2037,-6.56863 2.78036,-1.70295 6.0473,-2.55444 9.80082,-2.55447 4.6571,3e-5 8.67126,1.61612 12.04249,4.84827 3.37116,3.19746 5.05676,7.29851 5.0568,12.30315 -4e-5,2.36334 -0.38234,4.63976 -1.1469,6.82929 -0.76464,2.1548 -1.87679,4.08368 -3.33645,5.78665 -1.42497,1.70299 -3.26697,3.05842 -5.52599,4.0663 -2.25908,1.00788 -4.76141,1.51183 -7.50701,1.51183 -4.69189,0 -8.79294,-1.6856 -12.30315,-5.05681 -3.51022,-3.37119 -5.26533,-7.48961 -5.26533,-12.35528 m 17.20356,-15.90025 c -3.68401,3e-5 -6.63815,1.42497 -8.86244,4.27482 -2.18955,2.84991 -3.28432,6.20373 -3.28432,10.06147 0,4.58763 1.25116,8.56704 3.75351,11.93823 2.53707,3.33645 5.68237,5.00467 9.43589,5.00467 3.82299,0 6.74237,-1.28592 8.75817,-3.85777 2.01574,-2.60659 3.02362,-6.18632 3.02366,-10.73919 -4e-5,-5.07416 -1.11218,-9.12307 -3.33645,-12.14675 -2.22433,-3.02362 -5.387,-4.53545 -9.48802,-4.53548"
                    id="path4210"
                    style="line-height:125%;fill:#000000;font-family:EB Garamond;-inkscape-font-specification:EB Garamond"/>
        </g>
    </g>
</svg>
